<svg xmlns="http://www.w3.org/2000/svg" viewBox="103.86 163.02 386.83 93.03" fill="#fff" aria-label="NexBridge">
<g>
<path style=" stroke:none;fill-rule:nonzero;fill:#fff;fill-opacity:1;" d="M 223.453125 225.125 L 204.925781 193.320312 L 195.050781 193.320312 L 195.050781 240.0625 L 204.667969 240.0625 L 204.667969 207.746094 L 223.453125 240.0625 L 233.074219 240.0625 L 233.074219 193.320312 L 223.453125 193.320312 Z M 223.453125 225.125 "/>
<path style=" stroke:none;fill-rule:nonzero;fill:#fff;fill-opacity:1;" d="M 299.820312 205.4375 L 289.046875 205.4375 L 283.46875 215.890625 L 277.828125 205.4375 L 267.054688 205.4375 L 278.339844 222.621094 L 266.796875 240.0625 L 277.570312 240.0625 L 283.46875 229.289062 L 289.304688 240.0625 L 300.078125 240.0625 L 288.535156 222.621094 Z M 299.820312 205.4375 "/>
<path style=" stroke:none;fill-rule:nonzero;fill:#fff;fill-opacity:1;" d="M 324.25 232.046875 L 312.769531 232.046875 L 312.769531 219.929688 L 324.25 219.929688 C 328.929688 219.929688 331.367188 221.980469 331.367188 226.019531 C 331.367188 229.996094 328.929688 232.046875 324.25 232.046875 M 312.769531 201.335938 L 323.222656 201.335938 C 327.710938 201.335938 330.019531 203.128906 330.019531 206.59375 C 330.019531 210.117188 327.710938 211.914062 323.222656 211.914062 L 312.769531 211.914062 Z M 332.839844 215.25 C 337.457031 212.300781 339.253906 209.605469 339.253906 205.632812 C 339.253906 202.359375 337.648438 199.027344 335.019531 196.71875 C 332.261719 194.347656 328.992188 193.320312 323.992188 193.320312 L 303.152344 193.320312 L 303.152344 240.0625 L 324.183594 240.0625 C 329.570312 240.0625 333.160156 239.039062 335.980469 236.664062 C 338.804688 234.292969 340.597656 230.382812 340.597656 226.597656 C 340.597656 221.980469 338.164062 218.328125 332.839844 215.25 "/>
<path style=" stroke:none;fill-rule:nonzero;fill:#fff;fill-opacity:1;" d="M 366.449219 240.0625 L 375.425781 240.0625 L 375.425781 205.4375 L 366.449219 205.4375 Z M 366.449219 240.0625 "/>
<path style=" stroke:none;fill-rule:nonzero;fill:#fff;fill-opacity:1;" d="M 366.457031 193.320312 L 366.449219 193.320312 L 366.449219 201.335938 L 366.457031 201.335938 L 366.457031 202.289062 L 375.425781 202.289062 L 375.425781 193.320312 Z M 366.457031 193.320312 "/>
<path style=" stroke:none;fill-rule:nonzero;fill:#fff;fill-opacity:1;" d="M 247.046875 216.335938 C 248.761719 214.625 251.039062 213.679688 253.460938 213.679688 C 255.882812 213.679688 258.164062 214.625 259.875 216.335938 C 260.847656 217.3125 261.574219 218.46875 262.019531 219.730469 L 244.90625 219.730469 C 245.347656 218.46875 246.074219 217.3125 247.046875 216.335938 M 258.480469 230.308594 C 257.007812 231.292969 255.273438 231.820312 253.460938 231.820312 C 251.039062 231.820312 248.761719 230.878906 247.046875 229.164062 C 246.074219 228.191406 245.347656 227.035156 244.90625 225.773438 L 270.511719 225.773438 C 270.683594 224.789062 270.773438 223.78125 270.773438 222.75 C 270.773438 213.191406 263.023438 205.4375 253.460938 205.4375 C 243.902344 205.4375 236.148438 213.191406 236.148438 222.75 C 236.148438 232.3125 243.902344 240.0625 253.460938 240.0625 C 260.3125 240.0625 266.234375 236.082031 269.042969 230.308594 Z M 258.480469 230.308594 "/>
<path style=" stroke:none;fill-rule:nonzero;fill:#fff;fill-opacity:1;" d="M 464.96875 216.335938 C 466.679688 214.625 468.957031 213.679688 471.382812 213.679688 C 473.804688 213.679688 476.082031 214.625 477.796875 216.335938 C 478.769531 217.3125 479.492188 218.46875 479.9375 219.730469 L 462.824219 219.730469 C 463.269531 218.46875 463.992188 217.3125 464.96875 216.335938 M 479.9375 225.773438 L 488.429688 225.773438 C 488.601562 224.789062 488.691406 223.78125 488.691406 222.75 C 488.691406 213.191406 480.941406 205.4375 471.382812 205.4375 C 461.820312 205.4375 454.070312 213.191406 454.070312 222.75 C 454.070312 232.3125 461.820312 240.0625 471.382812 240.0625 C 478.230469 240.0625 484.152344 236.082031 486.960938 230.308594 L 476.398438 230.308594 C 474.925781 231.292969 473.195312 231.820312 471.382812 231.820312 C 468.957031 231.820312 466.679688 230.878906 464.96875 229.164062 C 463.992188 228.191406 463.269531 227.035156 462.824219 225.773438 Z M 479.9375 225.773438 "/>
<path style=" stroke:none;fill-rule:nonzero;fill:#fff;fill-opacity:1;" d="M 401.839844 228.785156 C 400.230469 230.394531 398.09375 231.28125 395.816406 231.28125 C 393.539062 231.28125 391.398438 230.394531 389.792969 228.785156 C 388.179688 227.175781 387.296875 225.035156 387.296875 222.761719 C 387.296875 220.484375 388.179688 218.34375 389.792969 216.734375 C 391.398438 215.125 393.539062 214.238281 395.816406 214.238281 C 398.09375 214.238281 400.230469 215.125 401.839844 216.734375 C 403.304688 218.199219 404.171875 220.101562 404.316406 222.148438 L 404.316406 223.371094 C 404.171875 225.417969 403.304688 227.320312 401.839844 228.785156 M 404.316406 207.675781 C 401.804688 206.257812 398.90625 205.449219 395.816406 205.449219 C 386.253906 205.449219 378.503906 213.199219 378.503906 222.761719 C 378.503906 232.320312 386.253906 240.070312 395.816406 240.070312 C 398.90625 240.070312 401.804688 239.261719 404.316406 237.847656 L 404.316406 240.0625 L 413.292969 240.0625 L 413.292969 193.320312 L 404.316406 193.320312 Z M 404.316406 207.675781 "/>
<path style=" stroke:none;fill-rule:nonzero;fill:#fff;fill-opacity:1;" d="M 343.675781 222.652344 L 343.675781 240.0625 L 352.660156 240.0625 L 352.660156 222.800781 C 352.660156 218.179688 356.40625 214.429688 361.027344 214.429688 L 363.371094 214.429688 L 363.371094 205.449219 L 360.878906 205.449219 C 351.378906 205.449219 343.675781 213.152344 343.675781 222.652344 "/>
<path style=" stroke:none;fill-rule:nonzero;fill:#fff;fill-opacity:1;" d="M 442.015625 224.539062 C 441.675781 226.140625 440.882812 227.609375 439.699219 228.792969 C 439.347656 229.144531 438.96875 229.460938 438.5625 229.742188 C 437.140625 230.738281 435.429688 231.28125 433.671875 231.28125 C 432.335938 231.28125 431.046875 230.972656 429.886719 230.394531 C 429.507812 230.203125 429.144531 229.988281 428.796875 229.746094 C 428.394531 229.460938 428.011719 229.140625 427.65625 228.785156 C 426.046875 227.175781 425.160156 225.035156 425.160156 222.761719 C 425.160156 222.375 425.1875 221.988281 425.238281 221.613281 C 425.488281 219.777344 426.332031 218.058594 427.65625 216.734375 C 428.558594 215.832031 429.628906 215.15625 430.796875 214.738281 C 431.703125 214.414062 432.671875 214.242188 433.664062 214.238281 C 435.921875 214.234375 438.101562 215.132812 439.699219 216.726562 C 440.882812 217.910156 441.675781 219.378906 442.015625 220.980469 C 442.058594 221.1875 442.097656 221.398438 442.125 221.613281 C 442.175781 221.988281 442.203125 222.375 442.203125 222.761719 C 442.203125 223.367188 442.136719 223.960938 442.015625 224.539062 M 442.464844 205.449219 L 442.015625 205.449219 L 442.015625 207.582031 C 440.738281 206.878906 439.359375 206.335938 437.910156 205.96875 C 436.558594 205.628906 435.140625 205.449219 433.679688 205.449219 C 431.640625 205.449219 429.679688 205.800781 427.863281 206.449219 C 421.164062 208.839844 416.367188 215.242188 416.367188 222.761719 C 416.367188 225.246094 416.894531 227.609375 417.835938 229.746094 C 419.0625 232.527344 421.003906 234.921875 423.421875 236.707031 C 424 237.132812 424.605469 237.523438 425.238281 237.875 C 427.734375 239.273438 430.613281 240.070312 433.679688 240.070312 C 436.097656 240.070312 438.398438 239.578125 440.488281 238.683594 C 441.011719 238.460938 441.519531 238.210938 442.015625 237.9375 L 442.015625 238.511719 C 441.675781 240.105469 440.886719 241.574219 439.707031 242.753906 C 438.097656 244.363281 435.957031 245.25 433.679688 245.25 C 432.25 245.25 430.871094 244.90625 429.644531 244.246094 C 426.480469 244.242188 423.316406 244.25 420.152344 244.246094 L 418.078125 244.246094 C 419.507812 247.210938 421.757812 249.699219 424.53125 251.429688 C 425.441406 251.996094 426.410156 252.484375 427.425781 252.875 C 429.363281 253.628906 431.472656 254.042969 433.679688 254.042969 C 433.863281 254.042969 434.042969 254.039062 434.222656 254.03125 C 443.535156 253.746094 450.992188 246.109375 450.992188 236.730469 L 450.992188 205.4375 L 442.464844 205.4375 Z M 442.464844 205.449219 "/>
<path style=" stroke:none;fill-rule:nonzero;fill:#fff;fill-opacity:1;" d="M 167.808594 193.046875 L 167.808594 226.964844 L 155.902344 226.964844 L 130.882812 193.875 L 130.882812 240.082031 L 155.902344 240.082031 C 169.722656 240.082031 180.925781 228.878906 180.925781 215.0625 C 180.925781 205.550781 175.621094 197.28125 167.808594 193.046875 "/>
<path style=" stroke:none;fill-rule:nonzero;fill:#fff;fill-opacity:1;" d="M 155.902344 211.222656 L 155.902344 190.039062 C 155.902344 176.21875 144.699219 165.015625 130.882812 165.015625 L 105.859375 165.015625 L 105.859375 240.082031 L 118.976562 240.082031 L 118.976562 178.132812 L 130.882812 178.132812 Z M 155.902344 211.222656 "/>
</g>
</svg>