<svg width="21" height="20" viewBox="0 0 21 20" fill="none" xmlns="http://www.w3.org/2000/svg">
<path d="M5.5 6.875C6.53553 6.875 7.375 6.03553 7.375 5C7.375 3.96447 6.53553 3.125 5.5 3.125C4.46447 3.125 3.625 3.96447 3.625 5C3.625 6.03553 4.46447 6.875 5.5 6.875Z" stroke="white" stroke-linecap="round" stroke-linejoin="round"/>
<path d="M10.5 16.875C11.5355 16.875 12.375 16.0355 12.375 15C12.375 13.9645 11.5355 13.125 10.5 13.125C9.46447 13.125 8.625 13.9645 8.625 15C8.625 16.0355 9.46447 16.875 10.5 16.875Z" stroke="white" stroke-linecap="round" stroke-linejoin="round"/>
<path d="M15.5 6.875C16.5355 6.875 17.375 6.03553 17.375 5C17.375 3.96447 16.5355 3.125 15.5 3.125C14.4645 3.125 13.625 3.96447 13.625 5C13.625 6.03553 14.4645 6.875 15.5 6.875Z" stroke="white" stroke-linecap="round" stroke-linejoin="round"/>
<path d="M5.5 6.875V8.33333C5.5 9.25383 6.24619 10 7.16667 10H8.83333C9.75383 10 10.5 10.7462 10.5 11.6667V13.125" stroke="white" stroke-linecap="round" stroke-linejoin="round"/>
<path d="M15.5 6.875V8.33333C15.5 9.25383 14.7538 10 13.8333 10H12.1667C11.2462 10 10.5 10.7462 10.5 11.6667V13.125" stroke="white" stroke-linecap="round" stroke-linejoin="round"/>
</svg>
